<svg height="32" viewBox="0 0 112 32" width="112" xmlns="http://www.w3.org/2000/svg"><g fill="none" fill-rule="nonzero"><path d="m7.05376197 31.9982748c-.28383403 0-.56081162-.003364-.84241918-.0092295-.58337286-.007038-1.16538224-.054062-1.7412549-.1406863-.53697219-.0856295-1.05715391-.2449161-1.54338714-.4726057-.48177472-.225803-.921192-.5218823-1.30141834-.8768954-.38573004-.3508312-.70686791-.7577356-.9506875-1.2045882-.24650628-.4497568-.4171033-.9318419-.50584837-1.429462-.09583697-.5346984-.14768874-1.0753628-.1551082-1.6173312-.00590622-.1819174-.01363834-.7876187-.01363834-.7876187v-18.93072212s.00823517-.5963941.01368492-.77160928c.00710408-.5411098.05865433-1.08093522.15420457-1.61480381.08890888-.49898325.25963796-.98245849.50627689-1.43368859.2429235-.44654397.56227848-.85375221.94568491-1.20583898.38297549-.3554321.82379839-.65303595 1.30639299-.88195871.48511572-.22695806 1.00431436-.38512102 1.54020113-.46918993.57776392-.08749448 1.16179381-.13479823 1.74718907-.14151432l.84058397-.01053206h97.88700755l.850627.01095472c.58007.00638238 1.158795.05326411 1.731249.14024634.541312.08512343 1.065922.24438998 1.556579.47256259.966811.4613457 1.753488 1.19123811 2.249767 2.08737503.242702.44811508.410798.9276466.498582 1.42231984.096688.538249.150802 1.08231657.161909 1.62786321.002702.2442817.002702.50667751.002702.76781395.007359.32346623.007359.6313457.007359.94175253v17.05730059c0 .3133741 0 .6191575-.007359.9274424 0 .2805099 0 .5374715-.003634.8019375-.010867.5358116-.064078 1.070168-.159207 1.5987858-.086926.5012097-.256594.9870577-.503053 1.4405029-.245544.4420025-.564837.8453822-.946114 1.1952724-.380568.356921-.820761.6547325-1.303654.8819846-.489298.2294399-1.013135.3893156-1.553877.4742446-.575829.0870866-1.157894.1341136-1.741311.1406863-.27286.0058655-.558575.0092295-.836.0092295l-1.009834.0017252z" fill="#000"/><g fill="#fff"><g transform="translate(7.043 6.175)"><path d="m13.6663627 10.6605893c.0189427-1.47027473.7897438-2.82836134 2.042352-3.59845197-.7938038-1.13369293-2.0757083-1.82670942-3.4590054-1.86998933-1.4553413-.15275867-2.8662313.87085267-3.60784663.87085267-.75596734 0-1.89780067-.855686-3.12736667-.830388-1.61778824.05226729-3.08944378.94977608-3.87653067 2.364154-1.67613333 2.90196403-.42588866 7.16687403 1.17970667 9.51260263.80331333 1.1486367 1.742156 2.4316934 2.97061267 2.3861934 1.20211866-.0498594 1.65108666-.7665494 3.10214666-.7665494 1.43759197 0 1.85881797.7665494 3.11219997.73762 1.2899294-.0209386 2.102646-1.1537413 2.8777754-2.3132546.5771793-.8184456 1.0213178-1.7230062 1.315964-2.6801754-1.5320443-.6479795-2.5282199-2.1491735-2.530008-3.812614zm-2.3674127-7.0111513c.7033231-.84431368 1.0498236-1.92953587.9659173-3.025204-1.0745212.11285776-2.0670778.62640905-2.77990263 1.43832867-.70388178.80106782-1.06046666 1.84907898-.99121534 2.91320466 1.08892926.01121187 2.12284457-.47763454 2.80520067-1.32632933z"/><path d="m7.19530067 8.78769667h-4.10228l-.98515734 2.90892333h-1.73756266l3.88561333-10.76226667h1.80526667l3.88561333 10.76226667h-1.767194zm-3.677414-1.34231934h3.25173333l-1.60299533-4.72096733h-.04485867zm14.82051133.32838867c0 2.4383493-1.3050787 4.0049447-3.274544 4.0049447-1.0179994.053252-1.9768993-.4799508-2.4688127-1.3728h-.0372666v3.8864626h-1.6106134v-10.44231063h1.559012v1.30507866h.0296227c.5137672-.8872518 1.473701-1.42022501 2.4984353-1.387178 1.9914354.00000867 3.3041667 1.574222 3.3041667 4.00580267zm-1.655472 0c0-1.5886-.8209673-2.63301133-2.0735693-2.63301133-1.2305974 0-2.0583334 1.06640733-2.0583334 2.63301133 0 1.58099067.827736 2.63978 2.0583334 2.63978 1.2526106 0 2.0735693-1.03678467 2.0735693-2.63978zm10.2916667 0c0 2.4383493-1.3050787 4.0049447-3.274544 4.0049447-1.0179995.053252-1.9768993-.4799508-2.4688127-1.3728h-.0372667v3.8864626h-1.6106133v-10.44231063h1.5589773v1.30507866h.0296227c.5137709-.88725126 1.4737084-1.42022133 2.498444-1.38716933 1.991496 0 3.3041927 1.57421333 3.3041927 4.005794zm-1.6554634 0c0-1.5886-.820976-2.63301133-2.073578-2.63301133-1.2305973 0-2.0583333 1.06640733-2.0583333 2.63301133 0 1.58099067.827736 2.63978 2.0583333 2.63978 1.2526107 0 2.073578-1.03678467 2.073578-2.63978zm7.363278.92421333c.11934 1.06725667 1.1561334 1.76799997 2.5729167 1.76799997 1.3575553 0 2.3342453-.70077797 2.3342453-1.66308997 0-.835354-.5890646-1.33553333-1.983852-1.67831733l-1.3947873-.33600667c-1.976234-.47734266-2.8936873-1.40156466-2.8936873-2.90130533 0-1.85690267 1.6182313-3.13235867 3.9160766-3.13235867 2.2741334 0 3.8331367 1.275456 3.8856134 3.13235867h-1.6258667c-.0973267-1.07402533-.9851573-1.72232667-2.282618-1.72232667s-2.1852827.655928-2.1852827 1.61061334c0 .76087266.56706 1.20859266 1.9542294 1.55133333l1.1857386.291148c2.2081367.52220133 3.12559 1.4092 3.12559 2.983396 0 2.0134747-1.6038446 3.274544-4.1547566 3.274544-2.386722 0-3.998176-1.2314467-4.10228-3.17806667zm10.084308-6.70481933v1.85690267h1.4921227v1.275456h-1.4921227v4.32571533c0 .6720047.298766.9851573.9546854.9851573.1771392-.0030888.3539918-.0155283.5298193-.0372666v1.267838c-.2949021.0551022-.5946453.0800579-.8945993.0744813-1.5886 0-2.2081367-.5966827-2.2081367-2.118428v-4.49749733h-1.14088v-1.275456h1.1408627v-1.85690267zm2.3562847 5.780606c0-2.46881267 1.4540327-4.02018067 3.7214233-4.02018067 2.275 0 3.722264 1.55133334 3.722264 4.02018067 0 2.47559-1.439646 4.0201807-3.722264 4.0201807-2.281812 0-3.7214233-1.5445994-3.7214233-4.0201807zm5.802602 0c0-1.69355333-.7761087-2.69309733-2.0811873-2.69309733-1.3050787 0-2.080338 1.007162-2.080338 2.69309733 0 1.700322.7752593 2.6922567 2.080338 2.6922567 1.3050786 0 2.0811873-.9919347 2.0811873-2.6922567zm2.9689747-3.92370333h1.5361406v1.33553333h.0372667c.2142192-.85974338 1.0019815-1.45144865 1.887366-1.41764133.1856088-.00064807.3707056.01950931.551824.06009466v1.50650934c-.2343198-.07160113-.4787557-.10447555-.7236667-.09732667-.4735048-.01920929-.9317525.1694981-1.2544207.51657318-.3226682.34707507-.4775202.8178428-.4238966 1.28869349v4.65410403h-1.6106133zm11.4384833 5.541926c-.2166667 1.42441003-1.6038447 2.40194933-3.378648 2.40194933-2.282618 0-3.69941-1.5293633-3.69941-3.98294 0-2.46119467 1.42441-4.05742133 3.631706-4.05742133 2.170896 0 3.5360693 1.49127333 3.5360693 3.87037733v.551824h-5.541926v.09732667c-.0517422.58416074.1499694 1.16239885.553826 1.58762927.4038565.42523046.9709332.65646826 1.556984.63489406.7815967.073233 1.5184893-.3755807 1.812044-1.103648zm-5.4446059-2.34185467h3.9228606c.0292287-.52491617-.1618444-1.03822066-.5271847-1.41625333-.3653402-.37803266-.8718226-.58651765-1.397422-.57522534-.5297571-.0031614-1.0388294.20542135-1.4140659.57938682-.3752365.37396546-.5855453.88232705-.584188 1.41209185z" transform="translate(21.667 7.8)"/></g><g transform="translate(29.577 6.175)"><path d="m.37071667 3.220802c0-1.677052.89206-2.71298733 2.32916666-2.71298733 1.07397594-.0531915 2.00923918.72619265 2.15059 1.792154h-.79980333c-.13849279-.62878367-.7074173-1.06812874-1.35078667-1.04312867-.92845133 0-1.50904866.75621867-1.50904866 1.963962 0 1.20436333.58059733 1.96015733 1.51243733 1.96015733.61950118.04636444 1.18475343-.35343039 1.347398-.95299533h.79980333c-.16179694 1.04080652-1.09693981 1.7820656-2.14720133 1.70202067-1.437072 0-2.33255533-1.03551934-2.33255533-2.70918267zm5.35827066.63095933c-.06691782-.69949962.26849651-1.37646432.86557114-1.74697695.59707463-.37051262 1.3525771-.37051262 1.94965173 0 .59707462.37051263.93248896 1.04747733.86557113 1.74697695.06819102.7002513-.26691716 1.378529-.86452119 1.74983926-.59760403.37131027-1.35414758.37131027-1.95175161 0-.59760403-.37131026-.93271221-1.04958796-.8645212-1.74983926zm2.88860867 0c0-.84592733-.38002467-1.34062066-1.046942-1.34062066-.66946533 0-1.04606667.49469333-1.04606667 1.34062933 0 .85270467.37662734 1.34358467 1.04606667 1.34358467.666926 0 1.046942-.49427734 1.046942-1.34359334zm1.8255813-1.949584h.7414074v.61995267h.0575553c.2001435-.45644912.6678211-.73566352 1.1645833-.69528333.3846413-.02891914.7615624.11863791 1.02434.40100846.2627776.28237054.3828954.66891213.326438 1.05048487v2.52633333h-.7701806v-2.332928c0-.627146-.2725234-.93903333-.8421227-.93903333-.2608963-.01215143-.5140892.09023956-.6931993.28032921-.1791102.19008965-.2662743.44891967-.2386407.70863279v2.28304267h-.7701807zm5.9320994-.075322c.8776733 0 1.4514933.40836467 1.526824 1.09645467h-.738868c-.0710667-.286494-.351234-.4693-.787956-.4693-.4299447 0-.7566.20397-.7566.50865533 0 .23313334.1972013.380016.6203773.476918l.6482667.150228c.7422566.17223267 1.090102.49130467 1.090102 1.06471734 0 .73463866-.6846667 1.22551866-1.6165327 1.22551866-.9284513 0-1.5335927-.41937133-1.602146-1.11084133h.771056c.1367444.33872473.4874543.53995083.8488913.48706667.479882 0 .8209674-.21493334.8209674-.52685534 0-.23274333-.1828147-.383396-.5738287-.47649333l-.680472-.157846c-.7422567-.17562133-1.0858727-.50865533-1.0858727-1.08926133-.000026-.691886.6339147-1.17896134 1.5157914-1.17896134zm2.5746066-.57721733.899678-1.232712h.9030667l-1.0071707 1.232712zm.07956.65253933h.7668007v3.90253934h-.7668007zm1.9660854 4.29313734h.787956c.0651733.28310533.391014.46592.910676.46592.6415326 0 1.0215486-.30468534 1.0215486-.82054267v-.74902533h-.0575553c-.2463199.42751935-.7116076.6807632-1.2043633.65550333-.9961554 0-1.6123034-.77018067-1.6123034-1.93857733 0-1.18993334.6229167-1.97115534 1.6199214-1.97115534.504972-.01758453.9776299.24779796 1.2255186.68809h.0609354v-.62334133h.7380186v3.93466667c0 .89248466-.699088 1.45869533-1.802736 1.45869533-.9749913 0-1.605526-.43712067-1.6876166-1.10023333zm2.7345673-2.39052667c0-.7774-.4020207-1.275456-1.05794-1.275456-.6626967 0-1.0350947.498082-1.0350947 1.275456 0 .77779867.372398 1.27588067 1.0350947 1.27588067.6601573 0 1.05794-.49426867 1.05794-1.27588067zm5.2732073 1.99992867h-.7422566v-.61995267h-.0609354c-.2023422.46139102-.677283.74148167-1.17897.69528333-.3823146.02713474-.7563767-.12017889-1.0175213-.40072167-.2611447-.28054278-.3813246-.6641839-.3269127-1.04357833v-2.53357h.7714547v2.33297134c0 .63053466.2539333.93184.820118.93184.2658721.02523014.5289396-.07081742.7160099-.26141964.1870704-.19060223.2781814-.45541994.2479834-.7207737v-2.282618h.77103zm4.5271634-1.05371067c-.2159673.73612888-.928331 1.21174997-1.691014 1.12903267-.5203797.01373723-1.0204935-.20195948-1.3676486-.58986032s-.5062553-.90879049-.4350874-1.42446368c-.069275-.51710492.0892304-1.03882677.434452-1.43000264.3452216-.39117588.8431897-.61331418 1.3648953-.60886536 1.0858727 0 1.7409513.74186666 1.7409513 1.96733333v.26875333h-2.7557486v.04316c-.0243863.28958813.0745166.57602805.2723853.78887528.1978687.21284722.4763435.33235212.7669387.32912472.3768022.0452354.7435935-.14167136.9284513-.47311333zm-2.7092-1.25768067h1.9711553c.0196325-.26485295-.0734947-.52568093-.256432-.71820745-.1829373-.19252651-.4386715-.29884648-.7041813-.29275921-.26911-.00338566-.528182.10205294-.7184465.29239742-.1902645.19034449-.2955943.44946077-.2920955.71856924z"/><path d="m34.647.379h.77v5.426h-.77z"/><path d="m36.4876113 3.85176133c-.0669178-.69949962.2684965-1.37646432.8655712-1.74697695.5970746-.37051262 1.3525771-.37051262 1.9496517 0 .5970746.37051263.932489 1.04747733.8655711 1.74697695.068191.7002513-.2669171 1.378529-.8645212 1.74983926-.597604.37131027-1.3541475.37131027-1.9517516 0-.597604-.37131026-.9327122-1.04958796-.8645212-1.74983926zm2.8886087 0c0-.84592733-.3800247-1.34062066-1.046942-1.34062066-.6694653 0-1.0460667.49469333-1.0460667 1.34062933 0 .85270467.3766274 1.34358467 1.0460667 1.34358467.6669347 0 1.046942-.49427734 1.046942-1.34359334zm7.2430973.89924467c-.2159672.73612888-.9283309 1.21174997-1.691014 1.12903267-.5203796.01373723-1.0204935-.20195948-1.3676485-.58986032-.3471551-.38790084-.5062554-.90879049-.4350875-1.42446368-.0692749-.51710492.0892305-1.03882677.4344521-1.43000264.3452216-.39117588.8431897-.61331418 1.3648953-.60886536 1.0858726 0 1.7409513.74186666 1.7409513 1.96733333v.26875333h-2.7557227v.04316c-.0243862.28958813.0745167.57602805.2723854.78887528.1978687.21284722.4763435.33235212.7669386.32912472.3768023.0452354.7435935-.14167136.9284514-.47311333zm-2.7092-1.25768067h1.971216c.0196325-.26485295-.0734946-.52568093-.256432-.71820745-.1829373-.19252651-.4386715-.29884648-.7041813-.29275921-.2691159-.00339509-.5281969.10203935-.718469.29238488s-.2956066.44946722-.2921077.71858178zm3.789994-1.591148h.7414074v.61995267h.0575553c.2001435-.45644912.6678211-.73566352 1.1645833-.69528333.3846413-.02891914.7615624.11863791 1.02434.40100846.2627776.28237054.3828954.66891213.326438 1.05048487v2.52633333h-.7701806v-2.332928c0-.627146-.2725234-.93903333-.8421227-.93903333-.2608963-.01215143-.5140892.09023956-.6931993.28032921-.1791102.19008965-.2662743.44891967-.2386407.70863279v2.28304267h-.7701807zm9.9226574 2.84882867c-.2159673.73612888-.928331 1.21174997-1.691014 1.12903267-.5203797.01373723-1.0204935-.20195948-1.3676486-.58986032s-.5062553-.90879049-.4350874-1.42446368c-.069275-.51710492.0892304-1.03882677.434452-1.43000264.3452216-.39117588.8431897-.61331418 1.3648953-.60886536 1.0858727 0 1.7409513.74186666 1.7409513 1.96733333v.26875333h-2.7557226v.04316c-.0243863.28958813.0745166.57602805.2723853.78887528.1978687.21284722.4763435.33235212.7669387.32912472.3768022.0452354.7435935-.14167136.9284513-.47311333zm-2.7092-1.25768067h1.9711553c.0196325-.26485295-.0734947-.52568093-.256432-.71820745-.1829373-.19252651-.4386715-.29884648-.7041813-.29275921-.2691055-.00337859-.5281707.10206313-.7184296.29240683-.1902588.1903437-.295585.44945593-.2920864.71855983z"/><path d="m58.739.379h.77v5.426h-.77z"/></g></g></g></svg>