<svg height="32" viewBox="0 0 112 32" width="112" xmlns="http://www.w3.org/2000/svg" xmlns:xlink="http://www.w3.org/1999/xlink"><linearGradient id="a" x1="61.03%" x2="26.518%" y1="95.035%" y2="28.096%"><stop offset="0" stop-color="#00a0ff"/><stop offset=".00657" stop-color="#00a1ff"/><stop offset=".2601" stop-color="#00beff"/><stop offset=".5122" stop-color="#00d2ff"/><stop offset=".7604" stop-color="#00dfff"/><stop offset="1" stop-color="#00e3ff"/></linearGradient><linearGradient id="b" x1="107.592%" x2="-130.479%" y1="50.001%" y2="50.001%"><stop offset="0" stop-color="#ffe000"/><stop offset=".4087" stop-color="#ffbd00"/><stop offset=".7754" stop-color="#ffa500"/><stop offset="1" stop-color="#ff9c00"/></linearGradient><linearGradient id="c" x1="86.246%" x2="-50.137%" y1="69.098%" y2="-36.01%"><stop offset="0" stop-color="#ff3a44"/><stop offset="1" stop-color="#c31162"/></linearGradient><linearGradient id="d" x1="-18.803%" x2="42.098%" y1="111.864%" y2="64.927%"><stop offset="0" stop-color="#32a071"/><stop offset=".0685" stop-color="#2da771"/><stop offset=".4762" stop-color="#15cf74"/><stop offset=".8009" stop-color="#06e775"/><stop offset="1" stop-color="#00f076"/></linearGradient><mask id="e" fill="#fff"><path d="m.322 6.559h12.342v-6.456h-12.342z" fill="#fff" fill-rule="evenodd"/></mask><mask id="f" fill="#fff"><path d="m.719 1.543h.398v-1.147h-.398z" fill="#fff" fill-rule="evenodd"/></mask><mask id="g" fill="#fff"><path d="m.021 3.697h4.463v-3.124h-4.463z" fill="#fff" fill-rule="evenodd"/></mask><mask id="h" fill="#fff"><path d="m.165 9.696h17.078v-9.512h-17.078z" fill="#fff" fill-rule="evenodd"/></mask><g fill="none" fill-rule="evenodd"><path d="m7.05376197 31.9982748c-.28383403 0-.56081162-.003364-.84241918-.0092295-.58337286-.007038-1.16538224-.054062-1.7412549-.1406863-.53697219-.0856295-1.05715391-.2449161-1.54338714-.4726057-.48177472-.225803-.921192-.5218823-1.30141834-.8768954-.38573004-.3508312-.70686791-.7577356-.9506875-1.2045882-.24650628-.4497568-.4171033-.9318419-.50584837-1.429462-.09583697-.5346984-.14768874-1.0753628-.1551082-1.6173312-.00590622-.1819174-.01363834-.7876187-.01363834-.7876187v-18.93072212s.00823517-.5963941.01368492-.77160928c.00710408-.5411098.05865433-1.08093522.15420457-1.61480381.08890888-.49898325.25963796-.98245849.50627689-1.43368859.2429235-.44654397.56227848-.85375221.94568491-1.20583898.38297549-.3554321.82379839-.65303595 1.30639299-.88195871.48511572-.22695806 1.00431436-.38512102 1.54020113-.46918993.57776392-.08749448 1.16179381-.13479823 1.74718907-.14151432l.84058397-.01053206h97.88700755l.850627.01095472c.58007.00638238 1.158795.05326411 1.731249.14024634.541312.08512343 1.065922.24438998 1.556579.47256259.966811.4613457 1.753488 1.19123811 2.249767 2.08737503.242702.44811508.410798.9276466.498582 1.42231984.096688.538249.150802 1.08231657.161909 1.62786321.002702.2442817.002702.50667751.002702.76781395.007359.32346623.007359.6313457.007359.94175253v17.05730059c0 .3133741 0 .6191575-.007359.9274424 0 .2805099 0 .5374715-.003634.8019375-.010867.5358116-.064078 1.070168-.159207 1.5987858-.086926.5012097-.256594.9870577-.503053 1.4405029-.245544.4420025-.564837.8453822-.946114 1.1952724-.380568.356921-.820761.6547325-1.303654.8819846-.489298.2294399-1.013135.3893156-1.553877.4742446-.575829.0870866-1.157894.1341136-1.741311.1406863-.27286.0058655-.558575.0092295-.836.0092295l-1.009834.0017252z" fill="#000" fill-rule="nonzero"/><g transform="matrix(1 0 0 -1 8 27)"><path d="m49.138819 3.51329681h1.3801709v9.24625779h-1.3801709zm12.4311539 5.91565236-1.5820931-4.00885668h-.047337l-1.6420041 4.00885668h-1.4866793l2.4622664-5.60278402-1.4030998-3.11684909h1.4386026l3.7951003 8.71963311zm-7.8268859-4.86536149c-.4526606 0-1.0828351.22559064-1.0828351.78549923 0 .71301436.7847596.9866817 1.4630108.9866817.606506 0 .8927473-.13091654 1.2610887-.30917013-.107248-.85650481-.8446705-1.4630108-1.6412644-1.4630108zm.1664193 5.06728361c-.9992556 0-2.0347536-.44008667-2.4622664-1.41567375l1.2248463-.51109224c.2618331.51109224.7492568.67825121 1.2610887.67825121.713754 0 1.4393422-.4282524 1.4511765-1.1900831v-.0946741c-.2499988.1427508-.7847596.35650718-1.4393423.35650718-1.32026 0-2.6649281-.72558827-2.6649281-2.08135106 0-1.23742015 1.0828351-2.03475364 2.295847-2.03475364.9282501 0 1.440082.41641814 1.7610863.9045815h.0473371v-.71375401h1.3320943v3.5451015c0 1.64126439-1.2248463 2.55694051-2.8069394 2.55694051zm-8.5295452-1.32765641h-1.9630084v3.16936362h1.9630084c1.0317998 0 1.6175958-.8542859 1.6175958-1.58431199 0-.71671256-.585796-1.58505163-1.6175958-1.58505163zm-.0355028 4.45633972h-3.306937v-9.24625779h1.3794314v3.50294194h1.9275056c1.5295785 0 3.0332696 1.10798289 3.0332696 2.87202776 0 1.76404489-1.5036911 2.87128809-3.0332696 2.87128809zm-18.0331983-8.1974462c-.9533979 0-1.751471.79807313-1.751471 1.89422176 0 1.1079829.7980731 1.91862994 1.751471 1.91862994.9415635 0 1.6797257-.81064704 1.6797257-1.91862994 0-1.09614863-.7381622-1.89422176-1.6797257-1.89422176zm1.5850516 4.34909175h-.0480767c-.3099097.36908109-.9053211.70265939-1.6560572.70265939-1.5732174 0-3.0147786-1.38165024-3.0147786-3.15752938 0-1.76330523 1.4415612-3.13386084 3.0147786-3.13386084.7507361 0 1.3461475.3335783 1.6560572.71523329h.0480767v-.45340022c0-1.20339664-.6434881-1.84688471-1.6804654-1.84688471-.8461498 0-1.3705556.60798528-1.5850516 1.12055681l-1.2033967-.50073727c.3454126-.83431556 1.2633076-1.85871898 2.7884483-1.85871898 1.6205545 0 2.9911101.95339784 2.9911101 3.27661165v5.64864179h-1.3106447zm2.2640425-5.39790334h1.3823899v9.24699749h-1.3823899zm3.4193625 3.05028136c-.0355028 1.21523092.9415635 1.83505045 1.6442229 1.83505045.548814 0 1.0133088-.27366733 1.1678939-.66715659zm4.2899204 1.04881159c-.2618331.70265938-1.0606459 2.00146978-2.6930345 2.00146978-1.6205545 0-2.9667019-1.27440223-2.9667019-3.14569511 0-1.76330523 1.3343132-3.14569511 3.1212869-3.14569511 1.4423009 0 2.2766164.88165261 2.622029 1.39422414l-1.0724801.71523329c-.3572469-.52440579-.8461499-.86981835-1.5495489-.86981835-.7026594 0-1.2033966.32174403-1.5251407.95265819l4.206341 1.74037635zm-33.51167505 1.03623768v-1.33431319h3.19303216c-.09541375-.75073608-.34541256-1.29881039-.72632791-1.67972574-.46523447-.46523448-1.19230202-.97780601-2.46670425-.97780601-1.96670663 0-3.50368157 1.58505164-3.50368157 3.55101863 0 1.96670667 1.53697494 3.55101867 3.50368157 3.55101867 1.06064585 0 1.83505045-.4171578 2.4067933-.9533979l.94156357.9415636c-.79881277.7625703-1.85871898 1.3468871-3.34835687 1.3468871-2.69303454 0-4.95707703-2.1930369-4.95707703-4.88607147 0-2.69303454 2.26404249-4.88533181 4.95707703-4.88533181 1.45339546 0 2.5495441.47706874 3.40752818 1.37055561.88239226.88165262 1.1560596 2.12055206 1.1560596 3.12202659 0 .30990977-.02366853.59541137-.07174522.83357592zm8.19448765-4.08651904c-.9533978 0-1.7758791.78623886-1.7758791 1.90605603 0 1.13239106.8224813 1.90679567 1.7758791 1.90679567.9526582 0 1.7751395-.77440461 1.7751395-1.90679567 0-1.11981717-.8224813-1.90605603-1.7751395-1.90605603zm0 5.05175114c-1.7403763 0-3.158269-1.32247893-3.158269-3.14569511 0-1.81138193 1.4178927-3.14569511 3.158269-3.14569511 1.7396367 0 3.1575294 1.33431318 3.1575294 3.14569511 0 1.82321618-1.4178927 3.14569511-3.1575294 3.14569511zm6.8882809-5.05175114c-.9533978 0-1.7758791.78623886-1.7758791 1.90605603 0 1.13239106.8224813 1.90679567 1.7758791 1.90679567s1.7751395-.77440461 1.7751395-1.90679567c0-1.11981717-.8217417-1.90605603-1.7751395-1.90605603zm0 5.05175114c-1.7396367 0-3.1575294-1.32247893-3.1575294-3.14569511 0-1.81138193 1.4178927-3.14569511 3.1575294-3.14569511s3.1575294 1.33431318 3.1575294 3.14569511c0 1.82321618-1.4178927 3.14569511-3.1575294 3.14569511z" fill="#fff" fill-rule="nonzero" transform="translate(23.484 .185)"/><path d="m1.2462955 20.3120334c-.21449602-.2278096-.34171435-.5813582-.34171435-1.0391963v-16.3579104c0-.45857771.12721833-.81138668.34171435-1.03919625l.05473347-.05325418 9.16415763 9.16341803v.1079876.1087273l-9.16415763 9.163418z" fill="url(#a)" fill-rule="nonzero"/><path d="m.11020656 3.80619493v-.1087273-.10798765l3.05397957-3.05619849.0695263.039201 3.61906564 2.05620324c1.03327911.58801496 1.03327911 1.54954885 0 2.13608452l-3.61906564 2.05694289-.06878666.039201z" fill="url(#b)" fill-rule="nonzero" transform="translate(10.355 7.396)"/><path d="m.32174403.39644782c.34097471-.36020539.90384186-.40532352 1.53771459-.04585777l10.80468238 6.13976372-3.12350587 3.1242455z" fill="url(#c)" fill-rule="nonzero" transform="translate(.925 1.48)"/><path d="m.32174403 9.95705327 9.2188911-9.21815146 3.12350587 3.12424551-10.80468238 6.13902408c-.29733587.1693779-.57913926.2492592-.82913807.2492592-.28402232 0-.52736436-.1028102-.70857652-.29437733" fill="url(#d)" fill-rule="nonzero" transform="translate(.925 10.355)"/><g mask="url(#e)" opacity=".2" transform="translate(.925 1.48)"><path d="m12.5739047 6.6567731-10.73589568-6.09982308c-.60058887-.34171436-1.13756856-.31878547-1.48224148-.00813606l-.05473347-.05547311.05473347-.05325418v.00073964c.34467292-.31064941.88165261-.3335783 1.48224148.00813605l10.80468238 6.13902408z" fill="#000" fill-rule="nonzero" transform="translate(.021 -.098)"/></g><g mask="url(#f)" opacity=".12" transform="translate(.185 1.48)"><path d="m.73964146.73964146c-.21523567.22780956-.342454.58135818-.342454 1.03919624v-.10798765c0-.45783806.12721833-.81138668.342454-1.03919625l.0554731.05473347z" fill="#000" fill-rule="nonzero" transform="translate(.322 -.235)"/></g><g fill="#000" fill-rule="nonzero" mask="url(#g)" opacity=".12" transform="translate(13.498 7.396)"><path d="m3.69820728 2.21892437-3.6878523-2.09540425.06878666-.06878665 3.61906564 2.05620324c.51700937.29363766.77514424.68047014.77514424 1.06730262-.04363885-.34985041-.30621156-.69304404-.77514424-.95931496" transform="translate(.01 .519)"/></g><g mask="url(#h)" opacity=".25" transform="translate(.74 10.91)"><path d="m2.21892437 9.61533892 14.42374803-8.19522733c.4689327-.26627092.732245-.60946455.7751458-.9600546.0007381.38683248-.2581364.7744046-.7751458 1.06804226l-14.42374803 8.19522732c-1.03401876.58727533-1.87942894.09985159-1.87942894-1.08431438v-.10798765c0 1.18342633.84541018 1.67158966 1.87942894 1.08431438" fill="#fff" fill-rule="nonzero" transform="translate(-.175 -.276)"/></g><g fill="#fff"><path d="m.73964146.73964146h.7869785c.51257153 0 .91863469.146449 1.21818948.44008666s.44896236.70487831.44896236 1.23372195c0 .52440579-.14940757.93416716-.44896236 1.23002374-.29955479.29511694-.70561795.44304523-1.21818948.44304523h-.7869785zm-.56952392-.54511576v4.43784873h1.35650242c.68194942 0 1.22780482-.20562032 1.63682654-.61686097.40902173-.41124065.61316277-.94526178.61316277-1.60206339 0-.65754126-.20414104-1.19156239-.61316277-1.60206339-.40902172-.41198029-.95487712-.61686098-1.63682654-.61686098z" fill-rule="nonzero" transform="translate(23.891 16.078)"/><path d="m28.468 20.71h.57v-4.438h-.57z" fill-rule="nonzero"/><path d="m2.21892437 0c-.32248368 0-.6368313.10502909-.94452214.3158269-.30843049.21079782-.51035261.50591476-.60502671.88683011l.52070758.21005817c.06212988-.24334204.18860857-.44896236.38091535-.61612133.19304642-.16715897.40828208-.2514781.64792592-.2514781.24777988 0 .46005698.06508845.635352.19526535.17603467.13017689.26331236.3069512.26331236.53032292 0 .24777989-.08727769.43860738-.26331236.57322213-.17529502.1338751-.45340021.25887451-.83357591.37499822-.39274962.12352012-.69008548.28402231-.89274724.4800273-.20192212.19674463-.30399264.44748308-.30399264.75369464 0 .31804583.12647869.59467173.37869643.82987771.25221773.23520599.58061854.35354862.98520241.35354862.3764775 0 .68194943-.09393446.91715541-.28180339.23594562-.18860858.3890514-.39348926.4585777-.61686098l-.51996794-.21671494c-.03772172.13979223-.12943726.27070877-.27588627.39053068-.146449.11908228-.33579722.17899324-.56730499.17899324-.21893387 0-.40606316-.0606506-.56064822-.18269144-.15532471-.12204084-.23298706-.27366734-.23298706-.4548795 0-.16567968.07174522-.30547192.21375638-.41863706.14349044-.11390479.35280897-.21597531.62943488-.30695121.21893387-.07026593.40162531-.13831295.54881396-.20488068.146449-.06582809.29585658-.15384542.44600379-.26331236.15088686-.10946693.264052-.24556096.34097471-.40902172.07618307-.16346076.11464443-.35206933.11464443-.567305 0-.21449602-.04437849-.4068028-.13313546-.57618069-.08875698-.16937789-.20709961-.30399264-.35354862-.40310459-.14718865-.09911196-.30399264-.17455539-.47411017-.22559065-.16937789-.0517749-.34319364-.07766235-.52070758-.07766235" fill-rule="nonzero" transform="translate(29.087 16.173)"/><path d="m.73964146 2.95856582h.95487711c.23964383 0 .43195061.07988128.5761807.24112311.14496972.16124184.21671494.33875579.21671494.53328149 0 .19452571-.07174522.37203966-.21671494.53328149-.14423009.16124184-.33653687.24186276-.5761807.24186276h-.95487711zm0-2.34318413h-.57026357v4.43784873h1.51256678c.37573786 0 .70191974-.12499941.97632672-.37499822.27514662-.24999881.41198029-.56508607.41198029-.94526178 0-.3801757-.13683367-.69526296-.41198029-.94452213-.27440698-.25073846-.60058886-.37573786-.97632672-.37573786h-.94230321z" fill-rule="nonzero" transform="translate(33.436 15.657)"/><path d="m1.47928291 1.47928291c.32840081-.33283865.73002612-.49851834 1.20561557-.49851834.47484982 0 .87721477.16567969 1.20561557.49851834.32840081.33283865.49334085.75739285.49334085 1.27366259 0 .51626973-.16494004.94156357-.49334085 1.27366258-.3284008.33283866-.73076575.49925798-1.20561557.49925798-.47558945 0-.87721476-.16641932-1.20561557-.49925798-.32766116-.33209901-.49260121-.75739285-.49260121-1.27366258 0-.51626974.16494005-.94082394.49260121-1.27366259m2.83282677-.37130001c-.43638846-.44896236-.97854564-.67307372-1.6272112-.67307372-.64866555 0-1.19082274.22411136-1.62647156.67307372-.43638846.44822272-.65384304.99629704-.65384304 1.6449626 0 .64866555.21745458 1.19747951.65384304 1.64570223.43564882.44822272.97780601.67307373 1.62647156.67307373.64496735 0 1.18564525-.22559065 1.62425264-.67603229.43786774-.45044165.65680161-.99777633.65680161-1.64274367 0-.64866556-.21819423-1.19673988-.65384305-1.6449626" fill-rule="nonzero" transform="translate(36.542 15.738)"/><path d="m0 0v4.438h.694l2.157-3.452h.025l-.025.855v2.597h.571v-4.438h-.596l-2.256 3.62h-.025l.025-.856v-2.764z" fill-rule="nonzero" transform="translate(42.308 16.272)"/><path d="m46.746 20.71h.57v-4.438h-.57z" fill-rule="nonzero"/><path d="m.73964146.73964146h1.14718389c.21893387 0 .39644782.07692271.53254185.23002849.13683367.15236614.20488068.31952511.20488068.5014769 0 .1819518-.07026594.34837113-.21079781.49925799-.14053188.15014721-.3247026.22633028-.55177253.22633028h-1.12203608zm0 1.98963551h1.03475839c.21523566 0 .38831176.07100558.51848866.21375638.12943726.1427508.1945257.29881515.1945257.46819304s-.06286952.3247026-.18934821.46449483c-.12573905.14053188-.29141873.21079782-.4977787.21079782h-1.06064584zm-.57026357-2.53475127v4.43784873h1.60502196c.34763148 0 .64792592-.11538406.90236258-.34393327.25443666-.2300285.38165499-.51774902.38165499-.86464086 0-.21079782-.05473347-.39718747-.16494005-.5584293-.10872729-.16124184-.2551763-.28254304-.4371281-.36538288v-.02440817c.21893387-.07470379.39866675-.20266176.53993826-.38461356.13979224-.18195179.21079782-.39274961.21079782-.63239344 0-.3639036-.1338751-.66493767-.40014603-.9045815-.26627092-.23964383-.58135818-.35946575-.94526178-.35946575z" fill-rule="nonzero" transform="translate(48.163 16.078)"/><path d="m0 0v4.438h.57v-3.893h1.921v-.545z" fill-rule="nonzero" transform="translate(52.138 16.272)"/><path d="m2.959 4.438h-2.021v-1.407h1.822v-.533h-1.822v-1.407h2.021v-.546h-2.591v4.438h2.591z" fill-rule="nonzero" transform="translate(54.981 15.727)"/><path d="m2.959 4.438h-2.021v-1.407h1.822v-.533h-1.822v-1.407h2.021v-.546h-2.591v4.438h2.591z" fill-rule="nonzero" transform="translate(60.952 15.727)"/><path d="m0 0v4.438h.694l2.157-3.452h.025l-.025.855v2.597h.571v-4.438h-.596l-2.256 3.62h-.025l.025-.856v-2.764z" fill-rule="nonzero" transform="translate(64.803 16.272)"/></g></g></g></svg>